# xmcd
#
# Track frame offsets:
#	150
#	19257
#	40429
#	60467
#	82010
#	103505
#	122541
#	138969
#	158733
#	174172
#	190358
#	207122
#	230512
#	251408
#	275655
#	288202
#	302413
#	318132
#
# Disc length: 4423 seconds
#
# Revision: 0
# Processed by: cddbd v1.5.2PL0 Copyright (c) Steve Scherf et al.
# Submitted via: EasyCDDAExtractor 10.0.1.1
#
DISCID=ed114512
DTITLE=Various Artist - Battle Of The DJ's - Match 1 [CD2)
DYEAR=2003
DGENRE=Happy Hardcore
TTITLE0=Seduction - Can You Feel It
TTITLE1=Slipmatt - Hear Me
TTITLE2=Sunshine Productions - Above The Clouds
TTITLE3=Seduction - Imagination
TTITLE4=Dougal  and  Vibes - Feel Free
TTITLE5=Ravers Choice - Volume 1
TTITLE6=A Sense Of Summer - On Top (Hixxy Remix)
TTITLE7=Psy-Quest - I Believe (Vibes and Wishdokta Remix)
TTITLE8=Ravers Choice - Techno Wonderland
TTITLE9=Sy and Unknown - Hold Me Tight
TTITLE10=Vibes and Wishdokta - Feel Good
TTITLE11=Silk Cuts - Volume 10
TTITLE12=Triple J - Follow The Sun (Force and Styles Remix)
TTITLE13=DJ Kaos - Broken Wings
TTITLE14=Sy and Unknown - Cape Fear
TTITLE15=DJ Stompy - Kiss Your Lips
TTITLE16=Bang The Future - Body Slam
TTITLE17=DJ Stompy - Test Of Time
EXTD=
EXTT0=
EXTT1=
EXTT2=
EXTT3=
EXTT4=
EXTT5=
EXTT6=
EXTT7=
EXTT8=
EXTT9=
EXTT10=
EXTT11=
EXTT12=
EXTT13=
EXTT14=
EXTT15=
EXTT16=
EXTT17=
PLAYORDER=
